<svg width="163" height="33" viewBox="0 0 163 33" fill="none" xmlns="http://www.w3.org/2000/svg">
<g id="favbet" opacity="0.5">
<rect id="Rectangle 1854" x="0.646484" y="0.800781" width="162.287" height="31.2247" fill="black"/>
<path id="Vector" d="M55.3283 17.3408H46.3915V14.7482H57.1912V11.1683H41.2148V24.5006H46.3915V20.9208H55.3283V17.3408Z" fill="white"/>
<path id="Vector_2" d="M83.7085 20.0451L78.9699 11.1683H73.0292L80.721 24.5006H86.6189L94.3113 11.1683H88.4478L83.7085 20.0451Z" fill="white"/>
<path id="Vector_3" d="M110.906 17.7525C111.483 17.5246 111.981 17.1305 112.333 16.62C112.687 16.1095 112.88 15.5058 112.89 14.8851C112.89 12.696 111.044 11.1936 107.413 11.1936H95.7109V24.5173H107.678C111.576 24.5173 113.31 22.972 113.31 20.7486C113.31 19.4694 112.555 18.3534 110.906 17.7525ZM100.75 14.3872H106.537C106.677 14.3742 106.818 14.3907 106.952 14.4355C107.086 14.4803 107.208 14.5525 107.312 14.6474C107.417 14.7423 107.5 14.8579 107.557 14.9868C107.614 15.1157 107.643 15.255 107.643 15.3959C107.643 15.5368 107.614 15.6761 107.557 15.805C107.5 15.9339 107.417 16.0495 107.312 16.1444C107.208 16.2394 107.086 16.3116 106.952 16.3564C106.818 16.4012 106.677 16.4176 106.537 16.4046H100.75V14.3872ZM106.949 21.3152H100.75V19.2977H106.957C107.103 19.2743 107.252 19.2829 107.395 19.3228C107.537 19.3627 107.669 19.4331 107.782 19.529C107.894 19.6249 107.984 19.7441 108.047 19.8783C108.108 20.0125 108.141 20.1586 108.141 20.3064C108.141 20.4543 108.108 20.6003 108.047 20.7346C107.984 20.8688 107.894 20.988 107.782 21.0839C107.669 21.1798 107.537 21.2501 107.395 21.2901C107.252 21.33 107.103 21.3386 106.957 21.3152H106.949Z" fill="white"/>
<path id="Vector_4" d="M120.95 19.281H129.861V16.3879H120.95V14.7482H130.805V11.1683H115.765V24.5006H131.037V20.9208H120.95V19.281Z" fill="white"/>
<path id="Vector_5" d="M133.176 11.1683V14.7482H138.987V24.5006H144.224V14.7482H150.036V11.1683H133.176Z" fill="white"/>
<path id="Vector_6" d="M63.2166 11.1765L55.4903 24.5002H60.9932L62.0319 22.5343H70.2562L71.295 24.5002H77.0211L69.2947 11.1765H63.2166ZM63.9035 19.0746L66.1785 14.7821L68.4534 19.0746H63.9035Z" fill="white"/>
<path id="Vector_7" d="M13.5449 16.3964L18.1378 24.5005H24.0356L19.4341 16.3964H13.5449Z" fill="white"/>
<path id="Vector_8" d="M28.6282 16.3964L24.0352 24.5005H29.9244L34.5173 16.3964H28.6282Z" fill="white"/>
<path id="Vector_9" d="M24.0361 8.30933L19.4346 16.3963H28.629L24.0361 8.30933Z" fill="white"/>
</g>
</svg>
