<svg width="114" height="34" viewBox="0 0 114 34" fill="none" xmlns="http://www.w3.org/2000/svg">
<g id="nexon" style="mix-blend-mode:luminosity" opacity="0.5">
<path id="Vector" d="M15.3105 0.664062L0.580078 7.86801V20.7706H15.3105V0.664062Z" fill="#0B2A4A"/>
<path id="Vector_2" d="M19.5039 33.1358L34.6645 25.1792L15.3106 20.8783H0.687622V28.7274L19.5039 33.1358Z" fill="#C3D600"/>
<path id="Vector_3" d="M0.580078 17.6526V28.6199L15.3105 20.7708L0.580078 17.6526Z" fill="#00A1E1"/>
<path id="Vector_4" d="M55.5235 7.11561V4.21252H41.7607V17.8678H55.5235V14.7496H45.4165V12.2766H55.5235V9.48108H45.4165V7.11561H55.5235Z" fill="black"/>
<path id="Vector_5" d="M94.016 17.8678V4.21252H78.8555V17.8678H94.016ZM90.3603 7.43817V14.6421H82.4037V7.43817H90.3603Z" fill="black"/>
<path id="Vector_6" d="M69.7164 10.9863L75.9527 4.2124H71.2217L67.1359 8.94335L63.1576 4.2124H58.4266L64.7704 11.0938L58.4266 17.9752H63.1576L67.2434 13.2442L71.3292 17.9752H76.0602L69.7164 10.9863Z" fill="black"/>
<path id="Vector_7" d="M37.675 4.21244H34.0193V11.6314L22.7295 3.78235V17.8677H26.2777V10.3412L37.675 18.1902V4.21244Z" fill="black"/>
<path id="Vector_8" d="M98.1023 17.8677H101.651V10.2336L113.048 18.1902V4.21244H109.5V11.6314L98.1023 3.78235V17.8677Z" fill="black"/>
</g>
</svg>
