<svg width="64" height="64" viewBox="0 0 64 64" fill="none" xmlns="http://www.w3.org/2000/svg">
<g id="pepsi" style="mix-blend-mode:luminosity" opacity="0.5" clip-path="url(#clip0_0_52)">
<path id="Vector" d="M19.0989 44.8147C19.8425 44.7689 20.5896 44.7551 21.3287 44.6693C22.3361 44.5529 23.3446 44.444 24.3505 44.3122C25.5266 44.1579 26.6998 43.9862 27.8679 43.7883C29.2431 43.5552 30.6197 43.3283 31.9883 43.0537C33.1377 42.823 34.3022 42.6681 35.4595 42.4758C36.4454 42.312 37.4279 42.1267 38.4163 41.9811C39.1675 41.8705 39.9272 41.8164 40.6807 41.7201C41.694 41.5905 42.7077 41.4772 43.7304 41.4667C43.8533 41.4036 43.9936 41.4775 44.1167 41.4176L44.4278 41.3995C44.5765 41.3563 44.7288 41.3884 44.8791 41.3779H47.3051C47.4365 41.3869 47.5698 41.3576 47.6996 41.3982C49.1076 41.5421 50.5179 41.6455 51.9166 41.8966C53.5233 42.1848 55.0974 42.5739 56.6385 43.1064C56.8012 43.1626 56.955 43.2547 57.1214 43.2888C57.4188 43.3499 57.3929 43.5087 57.2942 43.7196C56.7461 44.8845 56.1533 46.025 55.4697 47.1169C54.8373 48.1271 54.1283 49.0829 53.3861 50.0139C53.084 50.396 52.7609 50.7611 52.4183 51.1075C51.9646 51.5629 51.5407 52.0462 51.0686 52.488C50.047 53.4467 48.963 54.3366 47.8238 55.1521C46.6695 55.9761 45.4527 56.6929 44.1897 57.3289C42.3112 58.2725 40.3309 58.9984 38.2876 59.4924C37.3283 59.726 36.3548 59.9178 35.3664 60.0228C34.7006 60.0935 34.0369 60.1792 33.3676 60.2125C33.2632 60.2533 33.1541 60.2257 33.0476 60.2341H32.6685C32.3977 60.2477 32.1253 60.2047 31.8559 60.2587L31.5446 60.2564C31.2758 60.2075 31.0045 60.2466 30.7351 60.2347H30.3555C30.2474 60.2261 30.1383 60.2551 30.0336 60.2131C28.009 60.1334 26.0367 59.7549 24.0867 59.2193C22.0714 58.6656 20.1599 57.8695 18.3245 56.886C16.8464 56.0938 15.4611 55.159 14.1486 54.1099C13.0588 53.2407 12.0354 52.2915 11.0868 51.2702C9.87498 49.9661 8.79357 48.5467 7.85801 47.0322C7.12914 45.8483 6.48599 44.6136 5.93347 43.3378C8.71333 44.2135 11.5141 44.7112 14.3809 44.8128C14.4934 44.8618 14.6118 44.8262 14.7265 44.8372H15.0919C15.2539 44.8469 15.4172 44.8156 15.5777 44.8562H17.8994C18.059 44.8164 18.2215 44.8469 18.3824 44.8374H18.7478C18.8655 44.8264 18.9843 44.8558 19.0989 44.8147Z" fill="#0D0C8C"/>
<path id="Vector_2" d="M44.9307 19.5247L44.5574 19.5448C44.4587 19.5807 44.356 19.5571 44.2549 19.564C44.1231 19.5766 43.9881 19.5364 43.8589 19.5898C42.7891 19.6762 41.7142 19.7252 40.6502 19.8589C39.3615 20.021 38.0732 20.1934 36.7899 20.4032C35.3089 20.6454 33.8279 20.8837 32.3525 21.1593C30.988 21.4153 29.6155 21.6294 28.246 21.8595C27.118 22.049 25.9915 22.2484 24.8605 22.4176C24.1292 22.5271 23.3914 22.5857 22.6569 22.6768C21.6211 22.8065 20.5828 22.8898 19.5398 22.9398C19.4371 22.9732 19.3315 22.951 19.2274 22.9575H18.915C18.7449 22.9709 18.5721 22.9292 18.404 22.9821L17.5275 23.0015C17.381 23.0308 17.2302 23.0313 17.0835 23.0031L16.2068 22.978C16.0798 22.9348 15.9489 22.9674 15.8201 22.9564C15.6741 22.9678 15.5256 22.9318 15.3815 22.978C14.5217 22.8974 13.656 22.8566 12.8035 22.7285C10.5387 22.3882 8.30301 21.9226 6.16654 21.0586C5.95546 20.9722 5.97015 20.8882 6.03216 20.7622C6.41153 19.992 6.77449 19.2119 7.19405 18.4639C7.7115 17.5361 8.28449 16.6403 8.90988 15.7815C9.44568 15.0496 9.99422 14.3293 10.6074 13.6595C11.0271 13.2002 11.4195 12.7115 11.8697 12.2842C13.067 11.1499 14.311 10.0712 15.6769 9.13337C16.813 8.35366 17.9886 7.64719 19.2161 7.03405C21.2517 6.01756 23.3962 5.28603 25.6111 4.77897C26.4059 4.59706 27.2165 4.47456 28.0308 4.3754C28.6545 4.29935 29.2774 4.22892 29.9041 4.18895C30.0188 4.14229 30.1389 4.17577 30.256 4.16562C30.3731 4.15546 30.4889 4.18593 30.6017 4.14401L31.1634 4.12068C31.5204 4.09087 31.8791 4.09043 32.2361 4.11938L32.7978 4.14229C32.9212 4.2004 33.0607 4.12759 33.1832 4.19068C34.7232 4.26543 36.2409 4.4778 37.7496 4.809C39.7212 5.24276 41.6406 5.88688 43.4748 6.73029C45.451 7.63617 47.2839 8.76868 48.9954 10.1073C50.0756 10.9525 51.1021 11.8573 52.0416 12.8552C53.5898 14.5002 54.9412 16.2944 56.059 18.2624C56.5034 19.0449 56.9176 19.8414 57.2846 20.6626C57.3278 20.7592 57.4454 20.8657 57.3438 20.9711C57.2561 21.0621 57.1494 20.9673 57.0502 20.9372C55.9028 20.5872 54.7411 20.2954 53.5568 20.099C52.5859 19.9378 51.6158 19.7786 50.6306 19.7101C50.1167 19.6749 49.6049 19.5956 49.0874 19.5898C48.9861 19.5282 48.8666 19.593 48.7634 19.5422L48.4518 19.5239C48.2751 19.4744 48.0943 19.5109 47.9156 19.4997H45.47C45.2919 19.5139 45.1092 19.474 44.9307 19.5247Z" fill="#FE1300"/>
<path id="Vector_3" d="M28.0087 29.2743V26.3265H21.8941H17.8712V29.2743V30.6196V33.4789V34.9126V37.8603H21.8941H28.0087V34.9126H21.8941V33.4789H26.7649V30.6196H21.8941V29.2743H28.0087Z" fill="black"/>
<path id="Vector_4" d="M57.6015 37.8603H53.5787V27.6532L57.6015 26.1286V37.8603Z" fill="black"/>
<path id="Vector_5" d="M16.1166 27.8004C15.0411 26.3745 12.4577 26.3263 12.4577 26.3263H5.73865V37.8601H9.76142V35.6612C9.76941 35.6586 13.117 34.5693 14.4479 33.8642C15.7787 33.159 16.2614 32.3557 16.5498 31.81C16.8382 31.2643 17.1921 29.2261 16.1166 27.8004ZM11.4734 31.9336C10.9607 32.1682 9.7653 32.6482 9.7612 32.65V29.2745C9.7653 29.2689 11.5053 29.2745 11.5053 29.2745C11.5053 29.2745 12.7355 29.397 12.7355 30.4027C12.7355 31.4084 11.9869 31.6976 11.4734 31.9336Z" fill="black"/>
<path id="Vector_6" d="M40.0047 27.8004C38.9293 26.3745 36.3458 26.3263 36.3458 26.3263H29.6268V37.8601H33.6498V35.6612C33.6577 35.6586 37.0052 34.5693 38.3362 33.8642C39.6673 33.159 40.1495 32.3557 40.4381 31.81C40.7268 31.2643 41.0802 29.2261 40.0047 27.8004ZM35.3615 31.9336C34.8488 32.1682 33.6534 32.6482 33.6495 32.65V29.2745C33.6536 29.2689 35.3935 29.2745 35.3935 29.2745C35.3935 29.2745 36.6236 29.397 36.6236 30.4027C36.6236 31.4084 35.875 31.6976 35.3615 31.9336Z" fill="black"/>
<path id="Vector_7" d="M52.21 28.9213L48.9046 30.205C48.9046 30.205 48.5997 29.0254 46.9305 29.0254C45.2614 29.0254 45.3102 29.7397 45.3102 29.7397C45.3102 29.7397 45.3422 30.4619 47.9421 30.7186C50.542 30.9752 52.484 32.4519 52.484 34.6184C52.484 36.7849 50.3976 38.1974 46.802 38.1974C43.2064 38.1974 41.4739 37.3682 40.5751 35.3113C43.1523 34.2459 43.7689 34.0407 43.7689 34.0407C43.7689 34.0407 44.5713 35.3888 46.6897 35.3888C48.808 35.3888 48.5111 34.5784 48.5111 34.4661C48.5111 34.3538 48.6531 34.0621 46.0104 33.5587C43.3677 33.0553 41.3775 32.0393 41.3775 29.9209C41.3775 27.8026 42.7898 26.0479 46.7059 26.0479C50.6219 26.0479 51.7553 27.4714 52.21 28.9213Z" fill="black"/>
<path id="Vector_8" d="M31.6703 63.7178C14.2786 63.7178 0.131104 49.5694 0.131104 32.1786C0.131104 14.7878 14.2795 0.639404 31.6703 0.639404C49.0611 0.639404 63.2095 14.7878 63.2095 32.1786C63.2095 49.5694 49.0611 63.7178 31.6703 63.7178ZM31.6703 1.97845C15.0179 1.97845 1.47015 15.5262 1.47015 32.1786C1.47015 48.8309 15.0179 62.3787 31.6703 62.3787C48.3226 62.3787 61.8704 48.8312 61.8704 32.1786C61.8704 15.526 48.3226 1.97845 31.6703 1.97845Z" fill="black"/>
</g>
<defs>
<clipPath id="clip0_0_52">
<rect width="63.0784" height="63.0784" fill="white" transform="translate(0.130859 0.639404)"/>
</clipPath>
</defs>
</svg>
