<svg width="123" height="43" viewBox="0 0 123 43" fill="none" xmlns="http://www.w3.org/2000/svg">
<g id="PM" opacity="0.5" clip-path="url(#clip0_0_129)">
<path id="Vector" d="M7.80454 42.7702L12.6269 25.6014L0.145508 25.6014L7.37904 0.551758L89.2175 0.551759L84.3952 17.4392L122.123 17.4392L115.031 42.7702L7.80454 42.7702Z" fill="black"/>
<path id="Vector_2" d="M35.4629 9.6992L34.47 12.936L29.5058 12.936L30.4987 9.6992L35.4629 9.6992ZM27.3783 20.676L28.513 16.5949L33.9027 16.5949C36.7394 16.5949 38.4414 15.3283 39.2924 12.6545L39.7179 11.1065C40.7107 7.72902 39.1506 5.47736 35.4629 5.47736L12.202 5.47736L7.80518 20.5353L27.3783 20.5353L27.3783 20.676Z" fill="white"/>
<path id="Vector_3" d="M47.9436 9.69941L49.7875 9.69941L49.7875 14.4841L45.2486 14.4841L47.9436 9.69941ZM41.7027 20.6762L43.1211 18.1431L49.7875 18.1431L49.7875 20.6762L54.184 20.6762L54.184 5.61827L45.6739 5.61827L36.7385 20.6762L41.7027 20.6762Z" fill="white"/>
<path id="Vector_4" d="M63.1198 9.69941L67.9426 9.69941L67.0914 12.9361L62.1271 12.9361L63.1198 9.69941ZM71.9137 12.6547L72.3391 11.2474C73.3322 7.72919 71.7718 5.61827 68.0841 5.61827L59.8579 5.61827L55.4609 20.6762L59.9998 20.6762L61.1344 16.5951L63.971 16.5951L65.2475 20.6762L69.9279 20.6762L68.5099 16.3136C70.2118 15.7507 71.3464 14.6249 71.9137 12.6547Z" fill="white"/>
<path id="Vector_5" d="M76.1699 20.6762L80.5664 5.61827L76.0279 5.61827L71.631 20.6762L76.1699 20.6762Z" fill="white"/>
<path id="Vector_6" d="M47.8022 22.7872L42.5542 28.8386L40.5685 22.7872L20.8535 22.7872L16.5985 37.8452L36.1716 37.8452L38.5828 29.5422L40.143 34.1863L42.9797 34.1863L47.2349 29.2607L44.8233 37.8452L49.3622 37.8452L53.6172 22.7872L47.8022 22.7872Z" fill="white"/>
<path id="Vector_7" d="M59.2904 31.6532L61.9855 26.8684L63.8293 26.8684L63.8293 31.6532L59.2904 31.6532ZM59.7162 22.7872L50.7804 37.8452L55.8866 37.8452L57.3051 35.3121L63.9713 35.3121L63.9713 37.8452L68.3678 37.8452L68.3678 22.7872L59.7162 22.7872Z" fill="white"/>
<path id="Vector_8" d="M83.6863 27.1498L84.8209 22.7872L71.0632 22.7872L69.7866 27.1498L74.7509 27.1498L71.7724 37.8452L76.3109 37.8452L79.2893 27.1498L83.6863 27.1498Z" fill="white"/>
<path id="Vector_9" d="M89.6422 27.1498L96.5923 27.1498L97.8688 22.7872L90.4934 22.7872C87.6569 22.7872 85.9545 24.0538 85.1038 26.7276L83.5433 32.2161C82.5507 35.7342 84.1106 37.8452 87.7984 37.8452L93.4719 37.8452L94.7484 33.4826L87.7984 33.4826L89.6422 27.1498Z" fill="white"/>
<path id="Vector_10" d="M109.499 22.7872L107.938 28.2757L102.833 28.2757L104.393 22.7872L99.8541 22.7872L95.4572 37.8452L99.9956 37.8452L101.556 32.4975L106.804 32.4975L105.244 37.8452L109.782 37.8452L114.037 22.7872L109.499 22.7872Z" fill="white"/>
</g>
<defs>
<clipPath id="clip0_0_129">
<rect width="121.978" height="42.2492" fill="white" transform="translate(0.145508 0.551758)"/>
</clipPath>
</defs>
</svg>
