<svg width="152" height="33" viewBox="0 0 152 33" fill="none" xmlns="http://www.w3.org/2000/svg">
<g id="juga bet" style="mix-blend-mode:luminosity" opacity="0.5" clip-path="url(#clip0_0_140)">
<path id="Vector" d="M147.876 0.886719H10.9056C9.30688 0.886719 7.88686 1.90422 7.36537 3.42063L1.03649 21.8167C-0.755671 27.032 3.10286 32.466 8.59687 32.466H139.586C141.183 32.466 142.605 31.4485 143.127 29.9345L151.414 5.87589C152.256 3.43292 150.449 0.886719 147.874 0.886719L147.876 0.886719Z" fill="#0A234F"/>
<path id="Vector_2" d="M89.7395 2.99295H11.6997C10.7008 2.99295 9.81447 3.6295 9.48884 4.57572L3.4758 22.0526C2.07781 26.1201 5.08678 30.3597 9.37377 30.3597H81.9269C82.9234 30.3597 83.8121 29.7256 84.1378 28.7794L91.9479 6.10688C92.4743 4.58064 91.3456 2.99049 89.737 2.99049L89.7395 2.99295Z" fill="#B6DE13"/>
<path id="Vector_3" d="M65.6372 10.1793C65.3874 11.445 64.9223 12.6223 64.9223 12.6223H59.6486L60.2827 10.7839H56.8747C53.1655 10.7839 52.4579 11.9661 51.3439 15.2004L50.2251 18.4594C49.9533 19.268 49.7844 19.902 49.7378 20.4231C49.5861 22.1533 50.7466 22.3843 52.8717 22.3843C55.5746 22.3843 56.4903 21.7797 57.4525 18.9804H54.2109V15.2864H62.5841C63.3407 15.2864 63.8719 16.0336 63.6271 16.7512L62.9318 18.7764C60.6181 25.5302 58.471 26.7714 51.3415 26.7714C46.2515 26.7714 43.4384 26.0783 43.7664 22.2983C43.8399 21.4602 44.0749 20.4231 44.496 19.2114L46.3004 14.0158C48.6018 7.40699 52.5093 6.42636 58.3755 6.42636C62.687 6.42636 66.3129 6.76061 65.6372 10.1793Z" fill="#0A234F"/>
<path id="Vector_4" d="M75.5408 19.3467L76.0672 10.6611H76.0109L65.9337 26.6781H60.4152L72.3311 8.13458C72.926 7.21048 73.947 6.65012 75.0438 6.65012H79.7176C80.599 6.65012 81.3017 7.38497 81.2674 8.2673L80.5378 26.6756H75.105L75.2617 23.2422H70.6001V19.3467H75.5457H75.5408Z" fill="#0A234F"/>
<path id="Vector_5" d="M29.809 6.65989L24.9712 20.7058C23.9453 23.6845 26.1341 26.7911 29.2729 26.823C31.0552 26.8402 32.8376 26.8378 34.6175 26.8157C37.9031 26.7714 40.8019 24.6504 41.8767 21.534L46.9962 6.66972C46.9962 6.66972 46.9913 6.6476 46.9815 6.6476H41.6833C41.6833 6.6476 41.6711 6.65006 41.6686 6.65743L36.9067 20.5214C36.6055 21.3988 35.8172 22.0206 34.8966 22.1042C33.4864 22.2295 32.1643 22.2246 30.9304 22.0821C30.3819 22.0182 30.0269 21.4677 30.2081 20.9442L35.1243 6.66972C35.1243 6.66972 35.1194 6.6476 35.1096 6.6476H29.8262C29.8262 6.6476 29.8139 6.65251 29.8115 6.65743L29.809 6.65989Z" fill="#0A234F"/>
<path id="Vector_6" d="M26.981 6.6476L22.2093 20.4993C20.3632 25.867 18.4364 26.8476 12.8616 26.8476C8.83661 26.8476 7.4019 26.1545 7.6198 23.6452C7.6198 23.6403 7.6198 23.6354 7.6198 23.6329C7.68345 22.9472 7.8377 22.2713 8.06294 21.6176L8.49384 20.3641H13.4247L12.7906 22.2025H14.4726C16.1105 22.2025 16.4655 21.77 16.8915 20.4993L21.6633 6.6476H26.981Z" fill="#0A234F"/>
<path id="Vector_7" d="M95.793 7.88145C96.0379 7.16625 96.7087 6.687 97.4628 6.687H106.698C109.976 6.687 111.945 7.17854 111.717 9.80339C111.668 10.3515 111.494 11.0445 111.225 11.8236C110.343 14.3625 109.308 16.0091 106.509 16.4417L106.433 16.6432C108.404 16.7882 108.989 17.6533 108.872 19.01C108.816 19.6441 108.61 20.3667 108.341 21.1458C106.649 26.0514 104.147 26.715 99.9209 26.715H91.7533C90.5585 26.715 89.7212 25.5328 90.1105 24.3998L95.7955 7.88145H95.793ZM102.634 14.709C104.472 14.709 105.018 14.392 105.591 12.7748C105.709 12.4282 105.789 12.1407 105.814 11.8802C105.863 11.3321 105.569 11.0716 104.504 11.0716H100.019L96.1358 22.3255H100.161C101.887 22.3255 102.727 21.9224 103.297 20.3052C103.415 19.9587 103.495 19.6711 103.52 19.4106C103.593 18.5725 103.003 18.4005 101.625 18.4005H98.7849V14.7065H102.636L102.634 14.709Z" fill="white"/>
<path id="Vector_8" d="M108.402 24.4268L114.077 7.95272C114.339 7.19574 115.049 6.687 115.847 6.687H128.917L127.413 11.074H118.33L114.447 22.3279H123.704L122.201 26.715H110.03C108.85 26.715 108.02 25.5476 108.407 24.4268H108.402ZM117.059 18.4324H124.218L125.472 14.7385H117.059V18.4324Z" fill="white"/>
<path id="Vector_9" d="M130.065 6.687H145.846L144.351 11.074H128.569L130.065 6.687ZM133.61 26.715H128.292L133.688 11.074L138.506 12.5167L133.612 26.715H133.61Z" fill="white"/>
</g>
<defs>
<clipPath id="clip0_0_140">
<rect width="151.031" height="31.5793" fill="white" transform="translate(0.594727 0.886719)"/>
</clipPath>
</defs>
</svg>
