<svg width="77" height="77" viewBox="0 0 77 77" fill="none" xmlns="http://www.w3.org/2000/svg">
<g id="behance-round-svgrepo-com" clip-path="url(#clip0_61_145)">
<g id="Group">
<path id="Vector" d="M51.7493 36.7705C51.0124 36.1388 50.095 35.823 49.0122 35.823C47.8392 35.823 46.9218 36.1539 46.2601 36.8306C45.6134 37.5074 45.2073 38.4097 45.0269 39.5527H52.9524C52.8923 38.3345 52.4712 37.4171 51.7493 36.7705Z" fill="black"/>
<path id="Vector_2" d="M32.2287 40.019C31.6572 39.7633 30.8752 39.628 29.8525 39.6129H23.9873V45.9594H29.7773C30.815 45.9594 31.6121 45.824 32.1836 45.5383C33.2363 45.0119 33.7477 44.0344 33.7477 42.5756C33.7477 41.3424 33.2363 40.4852 32.2287 40.019Z" fill="black"/>
<path id="Vector_3" d="M38.5 0C17.2348 0 0 17.2348 0 38.5C0 59.7652 17.2348 77 38.5 77C59.7652 77 77 59.7652 77 38.5C77 17.2348 59.7652 0 38.5 0ZM43.8539 27.4162H54.0504V30.3789H43.8539V27.4162ZM37.7029 46.7113C37.2518 47.4482 36.6953 48.0799 36.0186 48.5762C35.2666 49.1627 34.3643 49.5537 33.3266 49.7793C32.2889 49.9898 31.176 50.0951 29.9578 50.0951H19.25V26.3033H30.7549C33.6574 26.3484 35.7178 27.1906 36.9209 28.8449C37.6428 29.8525 38.0037 31.0707 38.0037 32.4844C38.0037 33.9281 37.6428 35.1012 36.9059 35.9885C36.4998 36.4848 35.8832 36.9359 35.0861 37.342C36.3043 37.7932 37.2217 38.485 37.8383 39.4475C38.4549 40.41 38.7707 41.568 38.7707 42.9365C38.7707 44.3201 38.4098 45.5834 37.7029 46.7113ZM57.75 42.5906H44.9367C45.0119 44.3502 45.6135 45.5984 46.7715 46.3053C47.4783 46.7414 48.3205 46.967 49.3131 46.967C50.3508 46.967 51.208 46.6963 51.8697 46.1549C52.2307 45.8691 52.5465 45.4631 52.8172 44.9367H57.5094C57.3891 45.9744 56.8176 47.0422 55.81 48.125C54.2309 49.8395 52.0352 50.6967 49.1928 50.6967C46.8467 50.6967 44.7863 49.9748 42.9967 48.5311C41.207 47.0873 40.3047 44.7412 40.3047 41.4928C40.3047 38.4398 41.1168 36.1088 42.726 34.4846C44.3502 32.8604 46.4406 32.0482 49.0123 32.0482C50.5463 32.0482 51.9299 32.3189 53.148 32.8754C54.3812 33.4168 55.3889 34.2891 56.1859 35.4771C56.9078 36.5148 57.374 37.733 57.5846 39.1166C57.7199 39.9137 57.765 41.0717 57.75 42.5906Z" fill="black"/>
<path id="Vector_4" d="M32.304 35.0862C32.9507 34.6952 33.2665 33.9883 33.2665 32.9958C33.2665 31.8829 32.8454 31.161 31.9882 30.8C31.2513 30.5594 30.3188 30.4241 29.1759 30.4241H24.0024V35.6727H29.7774C30.8151 35.6877 31.6423 35.4922 32.304 35.0862Z" fill="black"/>
</g>
</g>
<defs>
<clipPath id="clip0_61_145">
<rect width="77" height="77" fill="white"/>
</clipPath>
</defs>
</svg>
