<svg width="77" height="77" viewBox="0 0 77 77" fill="none" xmlns="http://www.w3.org/2000/svg">
<path id="Vector" d="M38.5 0C17.2368 0 0 17.2368 0 38.5C0 59.7632 17.2368 77 38.5 77C59.7632 77 77 59.7632 77 38.5C77 17.2368 59.7632 0 38.5 0ZM23.3847 26.4687H53.5431C55.1432 26.4687 54.3171 28.5221 53.4468 29.0474C52.5766 29.5688 40.5333 36.8557 40.0801 37.1244C39.6269 37.3931 39.0494 37.5255 38.4639 37.5255C37.9005 37.537 37.3441 37.3986 36.8517 37.1244L23.481 29.0474C22.6107 28.5221 21.7886 26.4687 23.3847 26.4687ZM54.5417 48.526C54.5417 49.3682 53.531 50.5312 52.761 50.5312H24.239C23.469 50.5312 22.4583 49.3682 22.4583 48.526V33.9001C22.4583 33.5311 22.4503 33.0539 23.1481 33.4589L36.8517 41.5399C37.3354 41.8355 37.8981 41.9755 38.4639 41.9409C39.0494 41.9409 39.4745 41.8968 40.0801 41.5399L53.8519 33.4629C54.5497 33.0539 54.5417 33.5351 54.5417 33.9041V48.526Z" fill="black"/>
</svg>
