<svg width="77" height="77" viewBox="0 0 77 77" fill="none" xmlns="http://www.w3.org/2000/svg">
<g id="instagram-round-svgrepo-com" clip-path="url(#clip0_61_139)">
<g id="Group">
<path id="Vector" d="M38.5002 45.2676C42.2298 45.2676 45.2828 42.2297 45.2828 38.485C45.2828 37.0112 44.8015 35.6426 44.0045 34.5297C42.7712 32.8303 40.7711 31.7024 38.5152 31.7024C36.2593 31.7024 34.2591 32.8153 33.0259 34.5297C32.2289 35.6426 31.7476 37.0112 31.7476 38.485C31.7326 42.2297 34.7705 45.2676 38.5002 45.2676Z" fill="black"/>
<path id="Vector_2" d="M53.2984 30.2135V24.5287V23.6865H52.4563L46.7715 23.7016L46.8016 30.2285L53.2984 30.2135Z" fill="black"/>
<path id="Vector_3" d="M49.0273 38.4999C49.0273 44.305 44.3051 49.0273 38.5 49.0273C32.6949 49.0273 27.9727 44.305 27.9727 38.4999C27.9727 37.1013 28.2584 35.7628 28.7547 34.5447H23.0098V50.3056C23.0098 52.3359 24.6641 53.9902 26.6943 53.9902H50.3057C52.3359 53.9902 53.9902 52.3359 53.9902 50.3056V34.5447H48.2453C48.7566 35.7628 49.0273 37.1013 49.0273 38.4999Z" fill="black"/>
<path id="Vector_4" d="M38.5 0C17.2348 0 0 17.2348 0 38.5C0 59.7652 17.2348 77 38.5 77C59.7652 77 77 59.7652 77 38.5C77 17.2348 59.7652 0 38.5 0ZM57.75 34.5447V50.3057C57.75 54.4113 54.4113 57.75 50.3057 57.75H26.6943C22.5887 57.75 19.25 54.4113 19.25 50.3057V34.5447V26.6793C19.25 22.5736 22.5887 19.235 26.6943 19.235H50.3057C54.4113 19.235 57.75 22.5736 57.75 26.6793V34.5447Z" fill="black"/>
</g>
</g>
<defs>
<clipPath id="clip0_61_139">
<rect width="77" height="77" fill="white"/>
</clipPath>
</defs>
</svg>
