<svg width="77" height="77" viewBox="0 0 77 77" fill="none" xmlns="http://www.w3.org/2000/svg">
<g id="Linkedin-Icon-SVG-09yudf 2" clip-path="url(#clip0_60_34)">
<path id="Linkedin-Icon-SVG-09yudf" d="M38.5013 0C30.8864 0 23.4427 2.25799 17.1112 6.48856C10.7797 10.7191 5.84478 16.7323 2.93071 23.7675C0.0166456 30.8027 -0.745759 38.5439 0.739821 46.0125C2.2254 53.481 5.89225 60.3412 11.2767 65.7257C16.6612 71.1102 23.5215 74.7771 30.99 76.2627C38.4585 77.7482 46.2 76.9858 53.2352 74.0718C60.2703 71.1577 66.2834 66.2229 70.5139 59.8914C74.7445 53.5599 77.0026 46.116 77.0026 38.5012C77.002 28.2903 72.9453 18.4977 65.725 11.2775C58.5048 4.05721 48.7122 0.000666969 38.5013 0ZM27.3141 58.2021H17.9378V29.9926H27.3141V58.2021ZM22.636 26.1395H22.5757C21.1575 26.1315 19.8004 25.5616 18.8018 24.5545C17.8032 23.5475 17.2447 22.1855 17.2487 20.7673C17.2527 19.3491 17.8189 17.9903 18.8231 16.9889C19.8274 15.9875 21.1876 15.4253 22.6058 15.4253C24.024 15.4253 25.3843 15.9875 26.3886 16.9889C27.3928 17.9903 27.959 19.3491 27.963 20.7673C27.967 22.1855 27.4085 23.5475 26.4099 24.5545C25.4113 25.5616 24.0542 26.1315 22.636 26.1395ZM61.1171 58.2021H51.7409V43.1114C51.7409 39.3186 50.3826 36.7306 46.9898 36.7306C45.9323 36.7365 44.9024 37.0691 44.0411 37.6827C43.1799 38.2963 42.5294 39.1611 42.1784 40.1587C41.9377 40.8966 41.8328 41.6721 41.869 42.4475V58.1996H32.4927C32.4927 58.1996 32.616 32.6361 32.4927 29.9902H41.869V33.9842C42.7176 32.5099 43.954 31.2965 45.4439 30.4757C46.9338 29.6549 48.6203 29.2582 50.3198 29.3287C56.4894 29.3287 61.1147 33.3528 61.1147 42.0249L61.1171 58.2021Z" fill="black"/>
</g>
<defs>
<clipPath id="clip0_60_34">
<rect width="77" height="77" fill="white"/>
</clipPath>
</defs>
</svg>
